<svg xmlns="http://www.w3.org/2000/svg" xmlns:xlink="http://www.w3.org/1999/xlink" width="500" zoomAndPan="magnify" viewBox="0 0 375 374.999991" height="500" preserveAspectRatio="xMidYMid meet" version="1.0"><defs><g/></defs><rect x="-37.5" width="450" fill="#ffffff" y="-37.499999" height="449.999989" fill-opacity="1"/><rect x="-37.5" width="450" fill="#131313" y="-37.499999" height="449.999989" fill-opacity="1"/><g fill="#ffffff" fill-opacity="1"><g transform="translate(126.868311, 266.346201)"><g><path d="M 31.140625 -92.1875 L 31.140625 -160.984375 C 31.140625 -161.796875 30.328125 -162.8125 28.90625 -162.8125 L 2.234375 -162.8125 C 1.015625 -162.8125 0 -161.796875 0 -160.984375 L 0 -92.1875 Z M 121.703125 -162.8125 L 95.046875 -162.8125 C 93.828125 -162.8125 92.796875 -161.796875 92.796875 -160.984375 L 92.796875 -60.84375 L 31.140625 -60.84375 L 31.140625 -61.046875 L 0 -61.046875 L 0 -1.828125 C 0 -1.015625 1.015625 0 2.234375 0 L 28.90625 0 C 30.328125 0 31.140625 -1.015625 31.140625 -1.828125 L 31.140625 -30.53125 L 92.796875 -30.53125 L 92.796875 -1.828125 C 92.796875 -1.015625 93.828125 0 95.046875 0 L 121.703125 0 C 123.125 0 123.9375 -1.015625 123.9375 -1.828125 L 123.9375 -160.984375 C 123.9375 -161.796875 123.125 -162.8125 121.703125 -162.8125 Z M 121.703125 -162.8125 "/></g></g></g><path stroke-linecap="butt" transform="matrix(-1.540892, 0, 0, -1.540892, 337.49925, 39.566302)" fill="none" stroke-linejoin="miter" d="M -0.000486512 4.999067 L 84.432152 4.999067 " stroke="#ffffff" stroke-width="10" stroke-opacity="1" stroke-miterlimit="4"/><path stroke-linecap="butt" transform="matrix(0, -1.540892, 1.540892, 0, 322.098235, 155.839295)" fill="none" stroke-linejoin="miter" d="M -0.000355887 4.998758 L 82.462543 4.998758 " stroke="#ffffff" stroke-width="10" stroke-opacity="1" stroke-miterlimit="4"/><path stroke-linecap="butt" transform="matrix(1.540892, 0, 0, 1.540892, 37.500002, 331.877645)" fill="none" stroke-linejoin="miter" d="M -0.00000132229 4.999953 L 84.432638 4.999953 " stroke="#ffffff" stroke-width="10" stroke-opacity="1" stroke-miterlimit="4"/><path stroke-linecap="butt" transform="matrix(0, 1.540892, -1.540892, 0, 52.901019, 215.60461)" fill="none" stroke-linejoin="miter" d="M 0.00055741 5.00081 L 82.463456 5.00081 " stroke="#ffffff" stroke-width="10" stroke-opacity="1" stroke-miterlimit="4"/></svg>